.
The Informant! 2009 BluRayRip 720p 5.1ch subs 1h48m .mp4

I sought a reasonably-sized 720p AVCHD-Compliant BluRay/PS3/XBOX-ready torrent of 'The Informant! 2009' movie, but no luck. So, I created one, for our media center and to share.  PLEASE NOTE: Many scenes are shot with still camera, slow pan/zoom, and/or low lighting, all of which are Highly Compressable while maintaining Quality, which explains the uncommonly small file size. Enjoy.


Details, Ratings, Reviews     :  http://www.imdb.com/title/tt1130080/
Picture of Cover              :  http://bayimg.com/image/majfbaaco.jpg  *
~ RipMinion ~  Rare Torrents  :  http://1337x.org/user/RipMinion/
~ RipMinion ~  Rare Torrents  :  http://ninjalink.com/26683tbe
Azureus/Vuze Magnet Link      :  magnet:?xt=urn:btih:5YO36LLYOGBPCQ7YMVDJLAUKWFJQHMNG
*note: cover art pictures may not necessarily be precisely indicative.

| NOTE: Since TPB may be selling out. I bid thee farewell...
| Soon they may begin to obey corporate take down notices.
| Thus, this and all my Torrents have official New Home(s):
|  http://1337x.org/user/RipMinion/  or  http://ninjalink.com/26683tbe
| Simply click and go! There's no bs to deal with.
| Please update your bookmarks/links before the inevitable.


Encoding 'inspired by newartriot, ltt, secretmyth & lifechanger' for an Optimal blend of Quality, Compression, plus I add full AVCHD Compliancy (eg. burn to DVD-R disc then playback on BluRay Players & PS3 in full 720p quality - see below).

General
Complete name                 :  The Informant! 2009 BluRayRip 720p 5.1ch subs 1h48m .mp4
Format                        :  MPEG-4
Format profile                :  Base Media
Codec ID                      :  isom
File size                     :  507 MiB
Duration                      :  1h 48m
Overall bit rate              :  654 Kbps
Compatibility                 :  BluRay/PS3/XBOX ready!

Video
Full AVCHD Compliant          :  Yes! So, no need to re-encode!
Format                        :  AVC (h264)
Format/Info                   :  Advanced Video Codec
Format profile                :  High@L3.1
Format settings, CABAC        :  Yes
Format settings, ReFrames     :  3 frames
Codec ID                      :  avc1
Codec ID/Info                 :  Advanced Video Coding
Bit rate mode                 :  Variable
Bit rate                      :  505 Kbps (-crf 25)
Maximum bit rate              :  4 274 Kbps
Width                         :  1 280 pixels
Height                        :  720 pixels (true 720p)
Display aspect ratio          :  16/9
Frame rate mode               :  Constant
Frame rate                    :  23.976 fps
Standard                      :  NTSC
Resolution                    :  24 bits
Colorimetry                   :  4:2:0
Scan type                     :  Progressive
Bits/(Pixel*Frame)            :  0.023
Stream size                   :  391 MiB (77%)
Writing library               :  x264 core 80 r1376kGIT 3feaec2
Encoding settings             :  cabac=1 / ref=3 / deblock=1:-1:-1 / analyse=0x3:0x133 / me=umh / subme=10 / psy=1 / psy_rd=1.0:0.2 / mixed_ref=1 / me_range=64 / chroma_me=1 / trellis=2 / 8x8dct=1 / cqm=0 / deadzone=21,11 / fast_pskip=0 / chroma_qp_offset=-3 / threads=6 / sliced_threads=0 / nr=0 / decimate=1 / mbaff=0 / constrained_intra=0 / bframes=3 / b_pyramid=0 / b_adapt=2 / b_bias=0 / direct=3 / wpredb=1 / wpredp=2 / keyint=240 / keyint_min=24 / scenecut=40 / rc_lookahead=60 / rc=crf / mbtree=1 / crf=25.0 / qcomp=0.60 / qpmin=10 / qpmax=51 / qpstep=4 / vbv_maxrate=13000 / vbv_bufsize=13000 / ip_ratio=1.40 / aq=2:1.00

Audio Track Language          :  English
Format                        :  AAC, Nero AAC Encoder v1.3.3.0
Format/Info                   :  Advanced Audio Codec
Format version                :  Version 4
Format profile                :  AAC-LC (AAC-HE{v1} extension)
Format settings, SBR          :  Yes
Format settings, PS           :  No
Codec ID                      :  40
Bit rate mode                 :  Variable
Bit rate                      :  144 Kbps (-he -q 0.25 = ~transparent)
Maximum bit rate              :  227 Kbps
Channel(s)                    :  6 channels (5.1 Surround Sound)
Channel positions             :  Front: L C R, Rear: L R, LFE
Sampling rate                 :  48.0 KHz
Resolution                    :  16 bits
Stream size                   :  113 MiB (22%)

Subtitles Language            :  English
Format                        :  Timed text
Codec ID                      :  tx3g
Bit rate                      :  99 bps (vbr)
Stream size                   :  74.4 KiB (0%)

Encode process details / FAQ  :  http://ripminion.pastebay.com/
Subtitle Search Engines       :  http://www.opensubtitles.org/  http://subscene.com/filmsearch.aspx  http://www.addic7ed.com/  http://www.subtitlesource.org/
Because, fr33dom i$n't fr33   :  http://eff.org/  ,  http://wikileaks.org/  ,  http://1337x.org/  (ad-free).
More rare improved-cut movies :  http://fanedit.org/  then  http://fanedit.info/
~ RipMinion ~  Rare Torrents  :  http://ninjalink.com/26683tbe
~ RipMinion ~  Rare Torrents  :  http://1337x.org/user/RipMinion/

Playback issues? Here's the easy fix :  http://www.videolan.org/vlc/

For fast & easy Convert-to-DVD, Burn, and Play on any DVD Player from DVD-R or DVD+R_DL media, I recommend 'ConvertXtoDVD' software. Either buy or search for the Torrent.

For fast & easy Convert-to-AVCHD, Burn, and Playback on BluRay Players & PS3 in full 720p quality from a variety of disc types (DVD-R, DVD+R_DL, BD-R, BD-RE, etc.), I recommend 'multiAVCHD' freeware {link follows}.  It can auto-generate a slick customizable iTunes-style slide menu for multiple movies and burn everything to a single disc!  100% AVCHD Compliant Video, such as this, is quickly made ready (Non-compliant video is automatically re-encoded thus reducing quality, wasting lots of time, and bloating file size):

  http://www.videohelp.com/tools/multiAVCHD        (Note: the latest version broke AAC-HE 48KHz audio, so...)
  http://www.videohelp.com/tools/YAMB              (1. extract AAC audio track to .aac file)
  http://www.videohelp.com/tools/dBpowerAMP        (dbPowerAMP is free forever, only a few features expire)
  http://www.dbpoweramp.com/codec-central-m4a.htm  (2. convert .aac to .wav, 3. In multiAVCHD: replace audio track)
  http://ImgBurn.com/  (Tip: If subs are stuck On or doubled then use YAMB to remux, Un-Checking the Imbedded subs)


Please feel free to post constructive feedback, questions, comments, etc.

I really appreciate you helping seed at any capacity you can spare.

Enjoy the show,
~ RipMinion ~

.